<svg id="Layer_1" data-name="Layer 1" xmlns="http://www.w3.org/2000/svg" width="433.436" height="150mm" viewBox="0 0 325.09 425.2"><defs><style>.cls-1{fill:#1d1d1b}</style></defs><title>logo</title><path class="cls-1" d="M312.59 0H12.47A12.5 12.5 0 0 0 0 12.47v339.37c0 6.86 5.21 14.52 11.61 17l139.3 54.45c6.38 2.51 16.84 2.51 23.24 0l139.32-54.45c6.38-2.5 11.61-10.17 11.61-17V12.47A12.51 12.51 0 0 0 312.59 0zm-74.76 152.64l-75.26 33.42-59.93-26.61v16.15l59.93 26.6 75.26-33.41v49.7l-75.26 33.41-59.93-26.6v16.16L162.57 268l75.26-33.41v49.69l-75.26 33.42-75.31-33.5v-16.75L162.57 301l59.93-26.61v-16.17l-59.93 26.6L87.3 251.4v-49.7l75.27 33.4 59.93-26.6v-16.14L162.57 219 87.3 185.55v-49.7l75.27 33.43 59.93-26.61v-16.13l-59.93 26.6-75.31-33.5v-16.79l75.31 33.51 75.26-33.41z"/></svg>