<svg xmlns="http://www.w3.org/2000/svg" viewBox="0 0 146.76 51" fill="#1730a5"><circle cx="25.5" cy="25.5" r="25.5"/><g style="isolation:isolate"><g style="isolation:isolate"><path d="M73.72,41H67.2V12.6h6.52Z"/><path d="M95.32,24a9.65,9.65,0,0,1,3,7.24,10.07,10.07,0,0,1-3,7.4A10.19,10.19,0,0,1,87.8,41.6a10.38,10.38,0,0,1-7.6-2.92,10.07,10.07,0,0,1-3-7.4,9.65,9.65,0,0,1,3-7.24,10.51,10.51,0,0,1,7.6-2.88A10.32,10.32,0,0,1,95.32,24Zm-3.16,7.28a4.38,4.38,0,1,0-8.76,0,4.39,4.39,0,1,0,8.76,0Z"/><path d="M122.16,40.68a8.94,8.94,0,0,1-2.88,7,10.68,10.68,0,0,1-7.48,2.56A11.41,11.41,0,0,1,104.44,48a8.05,8.05,0,0,1-3.16-6.08h6.44c.28,2,1.64,2.92,4,2.92a3.66,3.66,0,0,0,3.92-4V39a10.18,10.18,0,0,1-5.28,1.36,9.39,9.39,0,0,1-6.8-2.76,9,9,0,0,1-2.84-6.68,9.64,9.64,0,0,1,2.8-7.16,9.3,9.3,0,0,1,6.84-2.8,9.87,9.87,0,0,1,5.28,1.44V21.6h6.48Zm-6.48-7.32V28a5.15,5.15,0,0,0-4-1.8,4.45,4.45,0,0,0-4.6,4.68,4.12,4.12,0,0,0,1.32,3,4.56,4.56,0,0,0,3.28,1.32A5.15,5.15,0,0,0,115.68,33.36Z"/><path d="M143.8,24a9.65,9.65,0,0,1,3,7.24,10.07,10.07,0,0,1-3,7.4,10.19,10.19,0,0,1-7.52,2.92,10.38,10.38,0,0,1-7.6-2.92,10.07,10.07,0,0,1-3-7.4,9.65,9.65,0,0,1,3-7.24,10.51,10.51,0,0,1,7.6-2.88A10.32,10.32,0,0,1,143.8,24Zm-3.16,7.28a4.38,4.38,0,1,0-8.76,0,4.39,4.39,0,1,0,8.76,0Z"/></g></g></svg>
