<svg xmlns="http://www.w3.org/2000/svg" viewBox="0 0 80 20"><path d="M14.6 4.6L7.3 7.8 1.5 5.3v1.5l5.8 2.5 7.3-3.1v4.6l-7.3 3.1-5.8-2.5v1.5l5.8 2.5 7.3-3.1v4.6L7.3 20 0 16.9v-1.6l7.3 3.1 5.8-2.5v-1.5l-5.8 2.5L0 13.8V9.2l7.3 3.1 5.8-2.5V8.3l-5.8 2.5L0 7.7V3.1l7.3 3.1 5.8-2.5V2.2L7.3 4.7 0 1.6V0l7.3 3.1L14.6 0v4.6zm10.7.1h7.4v1.8h-5.2V9h4.4v1.8h-4.4v2.6h5.4v1.8h-7.6V4.7zm11.3 8.4l1.8-.9c.5 1 1.5 1.6 2.5 1.5 1 0 1.8-.4 1.8-1.2s-.5-1.1-1.8-1.6l-.7-.3c-1.7-.7-2.8-1.5-2.8-3.2 0-1.7 1.4-2.8 3.3-2.8 1.3-.1 2.6.5 3.4 1.7l-1.6 1.1c-.4-.6-1-1-1.7-1-.6-.1-1.2.3-1.3.9v.2c0 .7.5 1 1.4 1.4l.7.1c1.9.8 3.2 1.6 3.2 3.4 0 1.9-1.5 3-3.9 3-1.7.1-3.4-.8-4.3-2.3zm12.6-8.4h2.2v10.5h-2.2V4.7zM56 10c.2-3.2 3.1-5.7 6.3-5.4 1.3.1 2.5.6 3.5 1.5l-1.4 1.4c-1.4-1.4-3.7-1.4-5.1 0-1.4 1.4-1.4 3.7 0 5.1.7.7 1.7 1.1 2.6 1.1.8 0 1.6-.2 2.3-.6v-1.6h-2.6V9.8h4.6v4.5c-1.3.8-2.8 1.3-4.3 1.2-3.5-.1-5.9-2.3-5.9-5.5zm18.2.2c-.5-.5-1-1-1.4-1.5.1.7.2 1.3.2 2v4.6h-2V4.6h.2l5.6 5.2c.5.5 1 1 1.4 1.5-.2-.6-.2-1.3-.2-2V4.7h2v10.7h-.2l-5.6-5.2z" fill="#fff"/></svg>