<svg xmlns="http://www.w3.org/2000/svg" viewBox="0 0 146.76 51" fill="#1730a5"><circle cx="25.5" cy="25.5" r="25.5"/><path d="M73.72 41H67.2V12.6h6.52zm21.6-17a9.65 9.65 0 013 7.24 10.07 10.07 0 01-3 7.4 10.19 10.19 0 01-7.52 2.96 10.38 10.38 0 01-7.6-2.92 10.07 10.07 0 01-3-7.4 9.65 9.65 0 013-7.24 10.51 10.51 0 017.6-2.88A10.32 10.32 0 0195.32 24zm-3.16 7.28a4.38 4.38 0 10-8.76 0 4.39 4.39 0 108.76 0zm30 9.4a8.94 8.94 0 01-2.88 7 10.68 10.68 0 01-7.48 2.56 11.41 11.41 0 01-7.36-2.24 8.05 8.05 0 01-3.16-6.08h6.44c.28 2 1.64 2.92 4 2.92a3.66 3.66 0 003.92-4V39a10.18 10.18 0 01-5.28 1.36 9.39 9.39 0 01-6.8-2.76 9 9 0 01-2.84-6.68 9.64 9.64 0 012.8-7.16 9.3 9.3 0 016.84-2.8 9.87 9.87 0 015.28 1.44v-.8h6.48zm-6.48-7.32V28a5.15 5.15 0 00-4-1.8 4.45 4.45 0 00-4.6 4.68 4.12 4.12 0 001.32 3 4.56 4.56 0 003.28 1.32 5.15 5.15 0 004-1.84zM143.8 24a9.65 9.65 0 013 7.24 10.07 10.07 0 01-3 7.4 10.19 10.19 0 01-7.52 2.92 10.38 10.38 0 01-7.6-2.92 10.07 10.07 0 01-3-7.4 9.65 9.65 0 013-7.24 10.51 10.51 0 017.6-2.88A10.32 10.32 0 01143.8 24zm-3.16 7.28a4.38 4.38 0 10-8.76 0 4.39 4.39 0 108.76 0z"/></svg>