<?xml version="1.0" encoding="utf-8"?>
<!-- Generator: Adobe Illustrator 17.0.0, SVG Export Plug-In . SVG Version: 6.00 Build 0)  -->
<!DOCTYPE svg PUBLIC "-//W3C//DTD SVG 1.1//EN" "http://www.w3.org/Graphics/SVG/1.1/DTD/svg11.dtd">
<svg version="1.1" id="Laag_1" xmlns="http://www.w3.org/2000/svg" xmlns:xlink="http://www.w3.org/1999/xlink" x="0px" y="0px"
	 width="36.949px" height="30px" viewBox="279.165 406.023 36.949 30" enable-background="new 279.165 406.023 36.949 30"
	 xml:space="preserve">
<path id="Path_124" d="M290.792,436.023c11.828,0.077,21.479-9.449,21.557-21.277c0.001-0.093,0.001-0.187,0-0.28
	c0-0.324,0-0.65-0.016-0.974c1.477-1.077,2.756-2.402,3.782-3.915c-1.386,0.611-2.854,1.014-4.358,1.197
	c1.582-0.947,2.765-2.439,3.325-4.196c-1.487,0.885-3.117,1.505-4.817,1.831c-2.872-3.051-7.673-3.196-10.723-0.325
	c-1.967,1.851-2.801,4.609-2.19,7.24c-6.094-0.304-11.771-3.183-15.617-7.919c-2.015,3.465-0.986,7.899,2.349,10.124
	c-1.207-0.03-2.389-0.355-3.442-0.945v0.088c0.008,3.607,2.552,6.71,6.088,7.424c-1.117,0.31-2.291,0.355-3.429,0.133
	c0.992,3.086,3.837,5.2,7.078,5.26c-2.684,2.109-5.999,3.254-9.413,3.251c-0.605,0-1.213-0.045-1.8-0.103
	c3.479,2.202,7.511,3.372,11.629,3.375"/>
</svg>
