<svg xmlns="http://www.w3.org/2000/svg"><defs><symbol viewBox="289.854 405.702 15.573 30" id="icon-facebook"><path id="icon-facebook_f_1_" fill="#1D1D1B" d="M299.963 435.702v-13.681h4.591l.688-5.333h-5.279v-3.393c0-1.548.424-2.594 2.647-2.594h2.818v-4.772a37.467 37.467 0 0 0-4.115-.211 6.419 6.419 0 0 0-6.854 7.04v3.922h-4.604v5.333h4.605v13.689h5.503z"/></symbol><symbol viewBox="282.703 406.008 30 30" id="icon-instagram"><g id="icon-instagram_Group_568" transform="translate(-733.338 -3908.721)"><path id="icon-instagram_Path_127" fill="#1D1D1B" d="M1045.942 4323.541a10.955 10.955 0 0 0-.698-3.642 7.372 7.372 0 0 0-1.726-2.656 7.33 7.33 0 0 0-2.659-1.724 10.942 10.942 0 0 0-3.64-.701c-1.596-.073-2.11-.088-6.176-.088-4.066 0-4.579.016-6.19.088a10.947 10.947 0 0 0-3.64.701c-1 .38-1.905.973-2.653 1.737a7.372 7.372 0 0 0-1.729 2.645 10.947 10.947 0 0 0-.701 3.64c-.073 1.61-.088 2.111-.088 6.19 0 4.079.016 4.58.088 6.186.026 1.243.263 2.472.701 3.635a7.637 7.637 0 0 0 4.382 4.392c1.165.438 2.397.674 3.641.698 1.598.073 2.11.088 6.185.088 4.076 0 4.579-.016 6.185-.088a10.944 10.944 0 0 0 3.641-.698 7.63 7.63 0 0 0 4.388-4.392c.438-1.166.674-2.397.698-3.642.073-1.598.088-2.11.088-6.186s-.025-4.573-.097-6.183zm-2.685 12.25a8.262 8.262 0 0 1-.516 2.787 4.7 4.7 0 0 1-1.118 1.732c-.483.5-1.074.885-1.728 1.123a8.262 8.262 0 0 1-2.787.516c-1.579.073-2.053.088-6.072.088s-4.483-.016-6.072-.088a8.262 8.262 0 0 1-2.787-.516 4.723 4.723 0 0 1-1.726-1.123 4.576 4.576 0 0 1-1.121-1.737 8.266 8.266 0 0 1-.516-2.787c-.073-1.579-.088-2.053-.088-6.072s.016-4.483.088-6.072a8.286 8.286 0 0 1 .516-2.787 4.712 4.712 0 0 1 1.121-1.721 4.567 4.567 0 0 1 1.728-1.121 8.263 8.263 0 0 1 2.787-.517c1.579-.073 2.053-.088 6.072-.088s4.483.016 6.072.088a8.263 8.263 0 0 1 2.787.517c.651.242 1.24.625 1.726 1.121a4.572 4.572 0 0 1 1.123 1.728c.331.893.506 1.835.516 2.787.073 1.579.088 2.053.088 6.072s-.014 4.489-.087 6.072l-.006-.002zm-12.214-13.76a7.695 7.695 0 1 0-.015 15.39 7.695 7.695 0 0 0 .018-15.39h-.003zm0 12.705a5.01 5.01 0 1 1 5.007-5.014v.008a5.011 5.011 0 0 1-5.007 5.007v-.001zm7.985-14.796a1.794 1.794 0 1 0 1.794 1.794 1.792 1.792 0 0 0-1.791-1.794h-.003z"/></g></symbol><symbol viewBox="279.165 406.023 36.949 30" id="icon-twitter"><path id="icon-twitter_Path_124" d="M290.792 436.023c11.828.077 21.479-9.449 21.557-21.277v-.28c0-.324 0-.65-.016-.974a15.863 15.863 0 0 0 3.782-3.915 15.418 15.418 0 0 1-4.358 1.197 7.57 7.57 0 0 0 3.325-4.196 14.91 14.91 0 0 1-4.817 1.831 7.586 7.586 0 0 0-12.913 6.915 21.497 21.497 0 0 1-15.617-7.919 7.586 7.586 0 0 0 2.349 10.124 7.421 7.421 0 0 1-3.442-.945v.088a7.59 7.59 0 0 0 6.088 7.424 7.472 7.472 0 0 1-3.429.133 7.582 7.582 0 0 0 7.078 5.26 15.213 15.213 0 0 1-9.413 3.251c-.605 0-1.213-.045-1.8-.103a21.772 21.772 0 0 0 11.629 3.375"/></symbol></defs></svg>