<?xml version="1.0" encoding="utf-8"?>
<!-- Generator: Adobe Illustrator 17.0.0, SVG Export Plug-In . SVG Version: 6.00 Build 0)  -->
<!DOCTYPE svg PUBLIC "-//W3C//DTD SVG 1.1//EN" "http://www.w3.org/Graphics/SVG/1.1/DTD/svg11.dtd">
<svg version="1.1" id="Laag_1" xmlns="http://www.w3.org/2000/svg" xmlns:xlink="http://www.w3.org/1999/xlink" x="0px" y="0px"
	 width="30px" height="30px" viewBox="282.703 406.008 30 30" enable-background="new 282.703 406.008 30 30" xml:space="preserve">
<g id="Group_568" transform="translate(-733.338 -3908.721)">
	<path id="Path_127" d="M1045.942,4323.541c-0.024-1.245-0.26-2.476-0.698-3.642c-0.376-1-0.965-1.906-1.726-2.656
		c-0.75-0.762-1.658-1.35-2.659-1.724c-1.164-0.439-2.396-0.676-3.64-0.701c-1.596-0.073-2.11-0.088-6.176-0.088
		c-4.066,0-4.579,0.016-6.19,0.088c-1.244,0.025-2.475,0.262-3.64,0.701c-1,0.38-1.905,0.973-2.653,1.737
		c-0.761,0.747-1.351,1.649-1.729,2.645c-0.439,1.165-0.676,2.396-0.701,3.64c-0.073,1.61-0.088,2.111-0.088,6.19
		c0,4.079,0.016,4.58,0.088,6.186c0.026,1.243,0.263,2.472,0.701,3.635c0.773,2.018,2.366,3.614,4.382,4.392
		c1.165,0.438,2.397,0.674,3.641,0.698c1.598,0.073,2.11,0.088,6.185,0.088c4.076,0,4.579-0.016,6.185-0.088
		c1.245-0.024,2.476-0.26,3.641-0.698c2.019-0.776,3.614-2.372,4.388-4.392c0.438-1.166,0.674-2.397,0.698-3.642
		c0.073-1.598,0.088-2.11,0.088-6.186S1046.014,4325.151,1045.942,4323.541z M1043.257,4335.791
		c-0.01,0.952-0.185,1.895-0.516,2.787c-0.24,0.653-0.622,1.245-1.118,1.732c-0.483,0.5-1.074,0.885-1.728,1.123
		c-0.892,0.331-1.835,0.506-2.787,0.516c-1.579,0.073-2.053,0.088-6.072,0.088c-4.019,0-4.483-0.016-6.072-0.088
		c-0.952-0.01-1.895-0.185-2.787-0.516c-0.651-0.243-1.24-0.626-1.726-1.123c-0.501-0.486-0.885-1.08-1.121-1.737
		c-0.331-0.893-0.506-1.835-0.516-2.787c-0.073-1.579-0.088-2.053-0.088-6.072c0-4.019,0.016-4.483,0.088-6.072
		c0.011-0.952,0.185-1.895,0.516-2.787c0.243-0.649,0.625-1.237,1.121-1.721c0.483-0.5,1.074-0.884,1.728-1.121
		c0.892-0.332,1.835-0.506,2.787-0.517c1.579-0.073,2.053-0.088,6.072-0.088s4.483,0.016,6.072,0.088
		c0.952,0.011,1.895,0.185,2.787,0.517c0.651,0.242,1.24,0.625,1.726,1.121c0.501,0.483,0.885,1.074,1.123,1.728
		c0.331,0.893,0.506,1.835,0.516,2.787c0.073,1.579,0.088,2.053,0.088,6.072c0,4.019-0.014,4.489-0.087,6.072L1043.257,4335.791z
		 M1031.043,4322.031c-4.25-0.002-7.697,3.44-7.7,7.69c-0.003,4.25,3.44,7.697,7.69,7.7c4.25,0.002,7.697-3.44,7.7-7.69
		c0.004-4.249-3.438-7.696-7.687-7.7C1031.045,4322.031,1031.044,4322.031,1031.043,4322.031z M1031.043,4334.736
		c-2.767,0.002-5.012-2.24-5.014-5.007c-0.002-2.767,2.24-5.012,5.007-5.014c2.767-0.002,5.012,2.24,5.014,5.007
		c0,0.002,0,0.005,0,0.008c-0.003,2.765-2.243,5.005-5.007,5.007V4334.736L1031.043,4334.736z M1039.028,4319.94
		c-0.991,0-1.794,0.803-1.794,1.794s0.803,1.794,1.794,1.794s1.794-0.803,1.794-1.794l0,0c0.001-0.99-0.801-1.793-1.791-1.794
		C1039.03,4319.94,1039.029,4319.94,1039.028,4319.94z"/>
</g>
</svg>
