<svg xmlns="http://www.w3.org/2000/svg" width="36.949" height="30" viewBox="279.165 406.023 36.949 30"><path d="M290.792 436.023c11.828.077 21.479-9.449 21.557-21.277v-.28c0-.324 0-.65-.016-.974a15.863 15.863 0 003.782-3.915 15.418 15.418 0 01-4.358 1.197 7.57 7.57 0 003.325-4.196 14.91 14.91 0 01-4.817 1.831 7.586 7.586 0 00-12.913 6.915 21.497 21.497 0 01-15.617-7.919 7.586 7.586 0 002.349 10.124 7.421 7.421 0 01-3.442-.945v.088a7.59 7.59 0 006.088 7.424 7.472 7.472 0 01-3.429.133 7.582 7.582 0 007.078 5.26 15.213 15.213 0 01-9.413 3.251c-.605 0-1.213-.045-1.8-.103a21.772 21.772 0 0011.629 3.375"/></svg>